<?xml version="1.0" encoding="UTF-8"?> <!-- Generator: Adobe Illustrator 19.0.0, SVG Export Plug-In . SVG Version: 6.00 Build 0) --> <svg xmlns="http://www.w3.org/2000/svg" xmlns:xlink="http://www.w3.org/1999/xlink" id="Layer_1" x="0px" y="0px" viewBox="0 0 525.7 153.4" style="enable-background:new 0 0 525.7 153.4;" xml:space="preserve"> <style type="text/css"> .st0{fill:#DC7123;} .st1{fill:#FFFFFF;} .st2{fill:#98989B;} </style> <g class="st1"> <rect x="200.5" y="73" width="9.4" height="6.1"></rect> <g> <path d="M214.9,67.7c0-18.2-0.2-37.4-0.2-55.6c5.3,0,9,0,14.9,0c0,3.2,0,5,0,7.4c0,1.1,1,1.1,1.7-0.1c1-2.3,1.4-5,2.1-7.3 c3.1,0.2,4.9,0,7.2,0c1.3,0,2.5,1.1,2.2,2.9c-1.1,5.6-1.9,9.4-3.5,14.3c-2.6,0.7-6,0.7-7.9,3c-1,1-1.7,1.8-1.7,3.2 c0.2,12,0,19.5,0,32.2C224.1,67.7,219.7,67.7,214.9,67.7z"></path> <path d="M485.5,113.8c0-10.7-0.1-22.5-0.1-33.2c3-0.1,5.8,0.2,8.8,0c0.2,1.8,0.2,3.1,0.2,4.8c0,0.2,0.5,0.3,0.8-0.1 c0.6-1.4,0.9-3.3,1.3-4.7c1.9,0.1,3.2,0,4.5,0c0.8,0,1.1,0.8,1,1.4c-0.9,3.8-1.4,6.1-2.1,9.2c-1.6,0.4-3.5,0.4-4.7,1.8 c-0.6,0.6-0.8,1.3-0.8,2.1c0,6.9,0,11.3,0,18.8C491.1,113.8,488.3,113.8,485.5,113.8z"></path> <path d="M331.2,12.1c5,0,8.6,0,14.9,0c0.2,2.3,0,4.5,0,6.9c0.3,0,0.8,0.4,1-0.3c0.5-1.7,1-3.6,2-5.3c0.7-1.3,2.3-1.7,3.6-1.7 c3.3,0.3,6.6,0,9.9,0.3c3,0.7,4.6,3.6,5.6,6.3c1,2.3,1.3,4.3,2,6.6c2,12.6,4,24.5,3.3,36.7c-0.3,2.3-1.1,6-4.1,6 c-6.8,0-11.2,0-15.8,0c-2.2,0-3.7-0.9-3.6-2.4c0.1-3.6,0.1-6.3,0.1-10.9c0-0.3,1-0.9,1.3-0.9c2.3,0,5.3-0.3,5.3-3 c0-7.6,1.2-14.4-1.4-21.7c-0.3-0.3-1-2.7-3-2.9c-2.4-0.2-6.2,1.5-6.2,5.4c0,15-0.3,22.2-0.2,36.4c-5,0-10.4,0-15.4,0 c0-18.5,0-36.2,0-55.6C330.5,12.1,330.8,12.1,331.2,12.1z"></path> <path d="M221.9,80.6c0.1,1.4,0.1,3.2,0.1,4.7c0.2,0,0.4,0,0.6-0.2c0.4-1,0.6-2.1,1.2-3.1c0.4-0.8,1.2-1.4,1.9-1.4 c2,0.2,3.3,0,5.6,0c1.8,0,3.2,2.7,3.8,4.3c0.6,1.4,0.8,2.5,1.2,3.9c1.2,7.4,2.3,14.4,2,21.7c-0.2,1.4-1.1,2.9-2.4,3.5 c-4,0-6.1,0-10.1,0c-0.4,0-1.3-0.8-1.3-1.4c0,0.8-0.1-6.5-0.1-6.5c0-0.2,3.9,0.7,4-2.2c0.2-4.5,0.5-7.3-0.6-12.2 c-0.2-1-0.7-1.9-1.9-1.9c-1.4-0.1-2.4,0.1-3.2,1.3c-0.2,0.6-0.6,1-0.6,1.6c0,8.1-0.2,13.1-0.1,21.5c-2.9,0-6.1-0.2-9.1-0.2 c0-10.9,0.2-21.8,0.2-33.2C212.9,80.6,217.7,80.6,221.9,80.6z"></path> <path d="M445,67.7c0-12.9,0-26.5,0-39.4c0-0.7-0.3-1.7-1-2c-1.7-0.3-3.3,0.3-4.6,1.7c-1.7,1.7-1,4-1.7,6c-0.3,1.7,0.3,24.2,0,33.7 c-5.3,0-10.1,0-15.2,0c0-16.7,0-49.6,0-55.9c6,0,15.6,0.2,15.6,0.2c0.3,2-0.3,4.1,0,6.1c0,0.3,0.8,0.4,1.2-0.1c1-2.3,1.5-6,3.9-6 c4.5,0,8.1-0.1,13-0.2c1.7,0,1.9,4,3.3,4c1,0,1.8-2.6,3.4-3.6c1-0.3,7.6-0.5,7.9-0.5c4.3,0,6.9,0.5,8.6,3.1 c2.6,4,3.3,8.3,4.3,12.9c1.7,11.6,3,22.5,2.6,33.7c-0.3,2.3-1,6.3-3.6,6.3c-6.6,0-10.8,0-16.9,0c-1,0-2.6-1.3-2.6-2.3 c-0.3-3.6,0-7.3,0-10.9c0-0.3,0.3-0.7,0.7-1c2-0.7,4.3,0,5.3-2.3c0.3-1.3,0.3-3,0.3-4.3c-0.3-4.3-0.7-8.3-1.3-12.6 c-0.7-2.6-0.7-5.6-2.7-7.3c-2-1.7-4.3,1-4.6,3c-1,12.6,0,25.5-0.3,37.7C460.5,68,450.1,67.7,445,67.7z"></path> <path d="M522.4,12.4c0.5,5.1,0.7,8.9,1,13.6c-5.6,0.2-10.1,0.2-15.2,0.3c-0.7,0-1.7,0.3-2,1c-1,1.3,0.3,3.3,1.7,4 c4.6,2,9.3,2.8,14.2,4.6c2.9,1.1,3.7,4.6,3.6,7.3c-0.1,8.3-1.2,14.7-5,22.5c-0.7,1.5-2.2,2-4,2c-8.6,0-26,0-26,0 s0.2-10.6,0.2-14.2c0,0,10.3,0,14.2,0c2.6,0,5.3-3,3.6-5.6c-0.7-1-2-1.7-3.3-2.3c-6-2.6-15.5-2.3-15.6-10.3 c-0.3-7.6-0.1-22.8,7.5-22.8C506.7,12.2,511.7,12.3,522.4,12.4z"></path> <path d="M521.3,80.6c0.3,3,0.6,5.8,0.8,8.5c-3.7-0.1-6.2-0.1-8.9,0c-0.4,0-1,0.2-1.2,0.6c-0.6,0.8,0.2,2,1,2.3 c2.7,1.2,5.5,1.7,8.4,2.7c1.7,0.6,2.1,2.7,2.1,4.3c0.1,4.7-0.9,9-2.9,13.3c-0.4,0.9-1.1,1.5-2.4,1.5c-5.1,0-15.4,0-15.4,0 s0-6.6,0-8.8c0,0,6.3,0,8.6,0c1.6,0,3.1-1.8,2.1-3.3c-0.4-0.6-1.2-1-2-1.4c-3.5-1.6-9.2-1.4-9.2-6.1c-0.2-4.5,0.3-13.8,4.1-13.8 C511.8,80.6,514.8,80.6,521.3,80.6z"></path> <path d="M351.9,80.6c0.3,3,0.5,5.6,0.7,8.3c-3.2,0.1-6,0-9,0.2c-0.4,0-1,0.2-1.2,0.6c-0.6,0.8,0.2,2,1,2.3 c2.7,1.2,5.5,1.7,8.4,2.7c1.7,0.6,2.1,2.7,2.1,4.3c0.1,4.2-0.1,9.9-2.9,13.3c-0.6,0.8-1.5,1.5-2.4,1.5c-6.2,0-15.5,0-15.5,0 s0-6.6,0-8.8c0,0,6.4,0,8.7,0c1.6,0,3.1-1.8,2.1-3.3c-0.4-0.6-1.2-1-2-1.4c-3.5-1.6-9.2-1.4-9.2-6.1c-0.2-4.5,0.1-13.8,4.2-13.8 C342.6,80.5,345.3,80.8,351.9,80.6z"></path> <path d="M489.6,15.7c-2,0-4,0.7-5.6-0.7c-3.3-2.6-5.3-6-7.6-9.6c0-0.3,0-1,0-1.3c0.3-0.3,1-0.7,1.3-0.7c4,0,7.9-0.7,11.9,0.3 c0.3,0.3,1,0.7,1,1.3c0,3.3,0.3,6.6,0,9.9C490.6,15.4,490,15.7,489.6,15.7z"></path> <path d="M330.9,93.8c-0.5,5-1,9.9-2.3,14.6c-0.7,2-1.5,5.5-3.5,5.5c-3.9,0-7.2-0.3-10.8,0c-0.7,0.1-1.3-1.5-1.9-2.3 c-0.8,0.7-0.9,2.3-1.7,2.3c-3.5,0-6.8,0-10.1,0c-3,0-4.4-4.8-5.1-7.8c-1.7-7.6-2.3-14.6-2-21.8c0.3-1.3,0.9-3.6,2.1-3.6 c3.4,0,6.7,0,11.4,0c0.1,2.9,0,5.6-0.2,8.5c0,0-2.6,0.1-2.6,1.1c-0.1,5.2-0.1,7.5,0.1,13c0,1,2.2,1.9,2.9,1.2 c0.3-0.3,0.7-1,0.7-1.7c0-4.3,0-8.6,0-12.9c0-0.3,0.3-0.7,0.7-0.7c2.6,0,5.3,0,7.9,0c0.3,0,0.7,0.3,0.7,0.7c0,4.3,0,8.6,0,12.9 c0,0.7,0.3,1.7,1,2c1.3,0.7,2.6-1,2.6-2.3c0.3-4,1-8.3,0-12.2c-0.3-1-2.6-0.4-2.6-1.3c-0.1-3.3-0.1-5.4,0.1-8.3 c4,0,7.5,0.3,11.1,0c2.6,1.6,1.9,5.1,1.8,8.1L330.9,93.8z"></path> <path d="M198.1,93.8c-0.5,5-1,9.9-2.3,14.6c-0.7,2-1.5,5.5-3.5,5.5c-3.9,0-7.2-0.3-10.8,0c-0.7,0-1.3-1.5-1.9-2.3 c-0.8,0.7-0.9,2.3-1.7,2.3c-3.5,0-6.8,0-10.1,0c-3.1,0-4.4-4.8-5.1-7.8c-1.7-7.6-2.3-14.6-2-21.8c0.3-1.3,0.9-3.6,2.1-3.6 c3.4,0,6.7,0,11.4,0c0.1,2.9,0,5.6-0.2,8.5c0,0-2.6,0.1-2.6,1.1c-0.1,5.2-0.1,7.5,0.1,13c0,1,2.2,1.9,2.9,1.2 c0.3-0.3,0.7-1,0.7-1.7c0-4.3,0-8.6,0-12.9c0-0.3,0.3-0.7,0.7-0.7c2.6,0,5.3,0,7.9,0c0.3,0,0.7,0.3,0.7,0.7c0,4.3,0,8.6,0,12.9 c0,0.7,0.3,1.7,1,2c1.3,0.7,2.6-1,2.6-2.3c0.3-4,1-8.3,0-12.2c-0.3-1-2.6-0.4-2.6-1.3c-0.1-3.3-0.1-5.4,0.1-8.3 c3.5,0,6.8,0,11.1,0c2.6,1.6,1.9,5.1,1.8,8.1L198.1,93.8z"></path> <path d="M162.1,0.2c12.6,0,23.8,0,37.1,0c4.5,0,6.3,3.6,7.6,6.9c2,5,1.6,10.3,1.3,15.6c-0.3,5.6-3,6.3-3,6.6 c4.6,4,5.1,10.1,5.6,15.9c0.4,4.6,0,9.6-1,14.2c-1,3.6-3.5,8.3-7.4,8.3c-14.1,0.3-26.8,0-41,0c0-22.2-0.2-45-0.2-67.2 C161.1,0.2,161.8,0.2,162.1,0.2z M179,51.1c3.5,0.2,6.1,0,9.9,0.2c3.1,0.1,3-5.1,2.6-7.8c-0.3-1.7-1-3.6-2.6-3.6 c-3.5-0.2-6-0.1-9.9,0.1C179,40,179,48,179,51.1z M179,15.7c0,2.3,0,6.6,0,9.7c3.3-0.2,6.7,0,9.6-0.1c3.5-0.2,2.8-9.8-0.3-9.8 C185.3,15.6,179,15.7,179,15.7z"></path> <path d="M416.9,67.7c-3.3,0-6.9,0.3-10.3,0c-1-0.3-1.8-2.3-2.6-2.3c-1.5,0-2.1,2.3-3.1,2.3c-6.8,0-11.8,0-17.7,0c-1,0-2-0.7-3-1.3 c-2.3-2-3-4.6-3.3-7.6c0-7.3-0.7-16.2,6-21.5c5.3-3.6,11.2-5,16.9-7.6c1.3-0.3,1.3-3.2-0.1-3.2c-6.2,0-9.7-0.1-15.1-0.1 c-0.7,0-1-0.7-1.3-1c-0.3-3.6,0.3-7.3,1.3-10.9c0.3-1,1.3-2.3,2.3-2.3c8.4,0.2,13.7-0.2,22.2,0c4,0.1,6.6,5,7.3,8.6 c2,14.6,2,28.5,3,42.7c0,1,0.3,2.3-0.3,3.3C418.5,67.3,417.9,67.7,416.9,67.7z M402.7,43c-3,1-6.1,2-7.7,2.9 c-2.5,1.3-3.1,7.2-0.7,7.3c2.2-0.1,5.2,0.1,7.9,0c0.5,0,0.7-1,0.7-1.7C403,49.1,403.1,42.9,402.7,43z"></path> <path d="M279.1,67.7c-3.3,0-6.9,0.3-10.3,0c-1-0.3-1.8-2.3-2.6-2.3c-1.5,0-2.1,2.3-3.1,2.3c-6.8,0-11.8,0-17.7,0c-1,0-2-0.7-3-1.3 c-2.3-2-3-4.6-3.3-7.6c0-7.3-0.7-16.2,6-21.5c5.3-3.6,11.2-5,16.9-7.6c1.3-0.3,1.3-3.2-0.1-3.2c-6.2,0-9.7-0.1-15.1-0.1 c-0.7,0-1-0.7-1.3-1c-0.3-3.6,0.3-7.3,1.3-10.9c0.3-1,1.3-2.3,2.3-2.3c8.4,0.2,13.7-0.2,22.2,0c4,0.1,6.6,5,7.3,8.6 c2,14.6,2,28.5,3,42.7c0,1,0.3,2.3-0.3,3.3C280.7,67.3,280.1,67.7,279.1,67.7z M265,43c-3,1-6.1,2-7.7,2.9 c-2.5,1.3-3.1,7.2-0.7,7.3c2.2-0.1,5.2,0.1,7.9,0c0.5,0,0.7-1,0.7-1.7C265.2,49.1,265.3,42.9,265,43z"></path> <path d="M325.2,0.2c0,22.2,0,44.7,0,66.8c0,0.3-0.3,0.7-0.7,0.7c-4.3,0-8.8,0-13.2,0c-0.7,0-1.4-2.3-2.4-2.3 c-1,0.3-1.5,2.2-2.5,2.3c-4.6,0.3-7.3,0-11.2,0c-5.6-1.7-8.3-7.6-9.9-12.9c-2.3-7.6-2.3-15.2-1-23.2c1.3-7.9,4.6-17.2,13.2-19.2 c2.6-0.7,5-0.7,7.6,0c2.3,0.3,2.9,2.6,3.6,4.6c0.3,0.9,1.3,0.1,1.3,0.1c0-7.1-0.2-11.2,0-17C315.2,0.2,319.1,0.2,325.2,0.2z M310,50.8c0-7.3,0-14.2,0-21.5c0-1.7-1.3-3.3-3.3-3c-3.3,1-5.3,3.6-6.3,6.6c-1,3-0.8,5.9-0.7,8.9c0.2,4,0.7,8.9,4.6,11.2 C306.4,54.1,310,53.8,310,50.8z"></path> <path d="M264.2,73.3c0,13.1,0.1,27,0.1,40.1c0,0.2-0.2,0.4-0.4,0.4c-2.5,0-5.1,0-7.6,0c-0.4,0-0.8-1.4-1.3-1.4 c-0.6,0.2-1.1,1.3-1.8,1.4c-2.7,0.2-4.3,0-6.6,0c-3.3-1-4.9-4.5-5.9-7.6c-1.4-4.5-1.4-9-0.6-13.7c0.8-4.7,2.4-10.4,7.5-11.6 c1.6-0.4,3.2-0.6,4.8,0.3c1.2,0.6,1.8,1.6,2.1,2.5c0.3,0.9,0.8,0.7,0.8,0.7c0-4.4,0-6.8,0-10.9C258.5,73.3,260.6,73.3,264.2,73.3z M255.3,103.8c0-4.3,0-8.4,0-12.7c0-1-0.8-2-2-1.8c-2,0.6-3.1,2.1-3.7,3.9c-0.6,1.8-0.6,3.5-0.4,5.3c0.4,2.3,0.4,5.3,2.7,6.6 C253.2,105.8,255.3,105.6,255.3,103.8z"></path> <path d="M428.3,73.3c0,13.1,0.1,27,0.1,40.1c0,0.2-0.2,0.4-0.4,0.4c-2.5,0-5.6,0-7.7,0c-0.4,0-0.7-1.4-1.3-1.4 c-0.6,0.2-1.1,1.3-1.8,1.4c-2.7,0.2-4.3,0-6.6,0c-3.3-1-4.9-4.5-5.9-7.6c-1.4-4.5-1.4-9-0.6-13.7c0.8-4.7,2.6-10.4,7.6-11.6 c1.6-0.4,3.1-0.3,4.7,0.1c1.4,0.2,1.8,1.6,2.1,2.9c0.2,0.6,0.7,0.3,0.7,0.3c0-4.3,0-6.9,0-10.8C422.4,73.3,424.7,73.3,428.3,73.3z M419.5,103.8c0-4.3,0-8.4,0-12.7c0-1-0.8-2-2-1.8c-2,0.6-3.1,2.1-3.7,3.9c-0.6,1.8-0.6,3.5-0.4,5.3c0.4,2.3,0.4,5.3,2.7,6.6 C417.3,105.8,419.5,105.6,419.5,103.8z"></path> <polygon points="209.9,113.8 209.9,80.6 200.6,80.6 200.7,113.8 "></polygon> <path d="M391.6,84.6c0.3,0,0.6,4,0.6,4l3.3-0.1c0,2.3-0.1,6.3-0.1,8.8l-3.2,0.3c-0.4,6.7-2.8,13.5-8.7,16.2c-4.1,0-6.6,0-10.4-0.3 c-5.9-0.4-9.5-11.5-8.8-17.1c0.3-2.3,1.8-3.5,3.6-5c0,0-2.2-1.1-2.3-2.6c-0.2-2.1-0.1-5.3,1-8.8c0.9-2.8,2.3-5.4,4.9-5.8 c3.5-0.6,7.8-1.3,12.5-1.8l1.5,9.8c-2.9,0.3-5.4,0.9-7.9,1.3c-1.7,0.3-2.3,2.6-1,4.3c1,1,3.4,1,5.1,0.3v-3.5 C381.6,84.6,388.6,84.6,391.6,84.6z M378.6,104.6c3.4,0,2.9-6.7,2.9-6.7l-5.6-0.1C375.8,97.8,375.2,104.6,378.6,104.6z"></path> <path d="M455.8,102.1c-0.9,4.8-3.4,10-8.5,11.4c-3,0.8-5.7,0.6-8.7-0.1c-3.6-1-6-4-7.3-7.3c-2.3-7.3-2.6-15.9,2.3-22.5 c3-3.6,7.6-3.6,11.9-3.3c4.3,0.3,7.8,3.2,9.3,7.3C456.9,93.5,455.8,102.1,455.8,102.1z M441.7,89.3c-2,0.7-3.3,7.9-2.2,12.1 c1.3,4.6,4.7,3.9,6,2.3c1.9-2.4,1.7-9.7,0.3-12.9C445.1,89.1,443.3,88.8,441.7,89.3z"></path> <path d="M291.8,102.1c-0.9,4.8-3.4,10-8.5,11.4c-3,0.8-5.7,0.6-8.7-0.1c-3.6-1-6-4-7.3-7.3c-2.3-7.3-2.6-15.9,2.3-22.5 c3-3.6,7.6-3.6,11.9-3.3c4.3,0.3,7.8,3.2,9.3,7.3C292.9,93.5,291.8,102.1,291.8,102.1z M277.7,89.3c-2,0.7-3.3,7.9-2.2,12.1 c1.3,4.6,4.7,3.9,6,2.3c1.9-2.4,1.7-9.7,0.3-12.9C281.1,89.1,279.3,88.8,277.7,89.3z"></path> <path d="M483.6,102.1c-0.9,4.8-3.4,10-8.5,11.4c-3,0.8-5.7,0.6-8.7-0.1c-3.6-1-6-4-7.3-7.3c-2.3-7.3-2.6-15.9,2.3-22.5 c3-3.6,7.6-3.6,11.9-3.3c4.3,0.3,7.8,3.2,9.3,7.3C484.7,93.5,483.6,102.1,483.6,102.1z M469.5,89.3c-2,0.7-3.3,7.9-2.2,12.1 c1.3,4.6,4.7,3.9,6,2.3c1.9-2.4,1.7-9.7,0.3-12.9C472.9,89.1,471.2,88.8,469.5,89.3z"></path> </g> </g> <path class="st0" d="M43.1,39.3l39.5,63.2l62.9-39.3L106,0L43.1,39.3z"></path> <path class="st1" d="M105.5,2.2c0.8,1.3,37,59.1,37.8,60.5c-1.3,0.8-58.9,36.8-60.2,37.6c-0.8-1.3-37-59.1-37.8-60.5 C46.6,39,104.1,3,105.5,2.2z"></path> <polygon class="st1" points="95.7,97.9 95.7,103.6 86.6,103.6 70.7,113.5 105.8,113.5 105.6,103.5 117.7,95.9 117.8,114.1 127.7,114.1 127.5,78.1 "></polygon> <g> <circle class="st2" cx="100.5" cy="50.5" r="8.7"></circle> <polygon class="st2" points="105.5,82 105.4,60.1 95.5,60.1 95.6,88.2 "></polygon> <polygon class="st2" points="107.5,70.8 107.5,59.1 128.9,45.7 134.2,54.1 "></polygon> <g> <polygon class="st2" points="93.7,60.2 62,60.2 68.2,70.2 93.7,70.2 "></polygon> </g> </g> <polygon class="st0" points="80.5,103.6 41,40.4 0,65.7 0,153.4 "></polygon> </svg> 