<?xml version="1.0" encoding="utf-8"?>
<!-- Generator: Adobe Illustrator 22.0.0, SVG Export Plug-In . SVG Version: 6.00 Build 0)  -->
<svg version="1.1" id="Capa_1" xmlns="http://www.w3.org/2000/svg" xmlns:xlink="http://www.w3.org/1999/xlink" x="0px" y="0px"
	 viewBox="0 0 210.7 51.6" style="enable-background:new 0 0 210.7 51.6;" xml:space="preserve">
<style type="text/css">
	.st0{fill:#1B3356;}
	.st1{fill:none;}
	.st2{fill:#B5C100;}
	.st3{opacity:0.2;fill:#FFFFFF;}
</style>
<g>
	<path class="st0" d="M63,42.2L63,42.2c0.1,0,0.2,0,0.2,0.1l0.1,0.1l2.6,4.6c0-0.1,0-0.2,0-0.3s0-0.2,0-0.3l0.5-4.3h1.5L67,49.6
		h-0.9c-0.1,0-0.2,0-0.3-0.1c-0.1,0-0.2-0.1-0.2-0.2L63,44.7c0,0.1,0,0.2,0,0.3s0,0.2,0,0.3l-0.5,4.4H61l0.9-7.5h0.9
		C62.9,42.2,63,42.2,63,42.2z"/>
	<path class="st0" d="M75.1,49.7h-1.3c-0.1,0-0.3,0-0.3-0.1c-0.1-0.1-0.1-0.2-0.2-0.3l-0.2-1.4h-2.6l-0.6,1.4c0,0.1-0.1,0.2-0.2,0.3
		s-0.2,0.1-0.4,0.1H68l3.6-7.5h1.7L75.1,49.7z M70.9,46.9h1.9l-0.4-2.1c0-0.2-0.1-0.4-0.1-0.5s-0.1-0.4-0.1-0.5
		c0,0.1-0.1,0.2-0.1,0.3S72,44.3,72,44.4s-0.1,0.2-0.1,0.3s-0.1,0.1-0.1,0.2L70.9,46.9z"/>
	<path class="st0" d="M78.8,48.4c0.2,0,0.4,0,0.5,0s0.3-0.1,0.4-0.1s0.2-0.1,0.3-0.1c0.1-0.1,0.1-0.1,0.2-0.1s0.1-0.1,0.2-0.1
		s0.1,0,0.2,0s0.1,0,0.1,0s0.1,0,0.1,0.1l0.6,0.7c-0.3,0.4-0.7,0.7-1.2,0.9c-0.4,0.2-1,0.3-1.5,0.3s-0.9-0.1-1.3-0.3
		s-0.7-0.4-0.9-0.7c-0.3-0.3-0.4-0.6-0.6-1c-0.1-0.4-0.2-0.8-0.2-1.3c0-0.4,0-0.8,0.1-1.2s0.2-0.7,0.4-1.1s0.4-0.6,0.6-0.9
		c0.2-0.3,0.5-0.5,0.8-0.7s0.6-0.3,1-0.4c0.3-0.1,0.7-0.1,1.1-0.1c0.3,0,0.5,0,0.8,0.1c0.2,0.1,0.4,0.1,0.6,0.2
		c0.2,0.1,0.4,0.2,0.5,0.3s0.3,0.3,0.4,0.4L81.4,44l-0.1,0.1c-0.1,0-0.1,0.1-0.2,0.1s-0.1,0-0.2,0l-0.1-0.1c-0.1,0-0.1-0.1-0.2-0.1
		s-0.1-0.1-0.2-0.1s-0.2-0.1-0.3-0.1c-0.1,0-0.3,0-0.4,0c-0.3,0-0.6,0.1-0.9,0.2c-0.3,0.1-0.5,0.3-0.7,0.6c-0.2,0.2-0.4,0.6-0.5,0.9
		s-0.2,0.8-0.2,1.2c0,0.3,0,0.6,0.1,0.9s0.2,0.5,0.3,0.6c0.1,0.2,0.3,0.3,0.5,0.4S78.6,48.4,78.8,48.4z"/>
	<path class="st0" d="M83.9,49.7h-1.7l0.9-7.5h1.7L83.9,49.7z"/>
	<path class="st0" d="M89.8,47.1c0.1-0.1,0.1-0.2,0.2-0.3s0.1-0.2,0.2-0.3l2.3-4c0.1-0.1,0.2-0.2,0.3-0.2c0.1,0,0.2,0,0.3,0h1.3
		l-1,7.4h-1.5l0.5-4.4c0-0.1,0-0.2,0-0.3s0-0.2,0.1-0.3l-2.3,3.9c-0.1,0.1-0.2,0.2-0.3,0.3C89.8,49,89.7,49,89.5,49h-0.1
		c-0.1,0-0.2,0-0.3-0.1s-0.2-0.1-0.2-0.3l-1.3-3.9c0,0.1,0,0.2,0,0.3s0,0.2,0,0.3l-0.5,4.4h-1.5l0.9-7.5h1.3c0.1,0,0.1,0,0.2,0
		s0.1,0,0.1,0s0.1,0,0.1,0.1l0.1,0.1l1.3,4C89.7,46.6,89.7,46.9,89.8,47.1z"/>
	<path class="st0" d="M102.2,45.5c0,0.4,0,0.8-0.1,1.2s-0.2,0.7-0.4,1s-0.4,0.6-0.6,0.9c-0.2,0.3-0.5,0.5-0.8,0.7s-0.6,0.3-1,0.4
		s-0.7,0.2-1.1,0.2c-0.5,0-0.9-0.1-1.3-0.3s-0.7-0.4-1-0.7s-0.5-0.7-0.6-1.1c-0.1-0.4-0.2-0.8-0.2-1.3c0-0.4,0-0.8,0.1-1.2
		s0.2-0.7,0.4-1s0.4-0.6,0.6-0.9c0.2-0.3,0.5-0.5,0.8-0.7s0.6-0.3,1-0.4c0.4-0.1,0.7-0.2,1.1-0.2c0.5,0,0.9,0.1,1.3,0.3
		s0.7,0.4,1,0.7s0.5,0.7,0.6,1.1C102.2,44.6,102.2,45,102.2,45.5z M100.5,45.5c0-0.3,0-0.6-0.1-0.8c-0.1-0.3-0.2-0.5-0.3-0.7
		c-0.1-0.2-0.3-0.3-0.5-0.4c-0.3-0.1-0.5-0.1-0.7-0.1c-0.3,0-0.7,0.1-0.9,0.2c-0.3,0.1-0.5,0.3-0.7,0.6s-0.3,0.6-0.4,0.9
		c-0.1,0.4-0.2,0.8-0.2,1.2c0,0.3,0,0.6,0.1,0.8c0.1,0.3,0.2,0.5,0.3,0.6s0.3,0.3,0.5,0.4s0.4,0.1,0.7,0.1c0.3,0,0.7-0.1,0.9-0.2
		c0.3-0.1,0.5-0.3,0.7-0.6s0.3-0.6,0.4-0.9C100.5,46.4,100.5,46,100.5,45.5z"/>
	<path class="st0" d="M107.5,43.7c-0.1,0.1-0.1,0.1-0.2,0.2c-0.1,0-0.1,0.1-0.2,0.1s-0.2,0-0.2-0.1c-0.1-0.1-0.2-0.1-0.3-0.2
		s-0.2-0.1-0.3-0.2s-0.3-0.1-0.4-0.1c-0.2,0-0.3,0-0.4,0.1s-0.2,0.1-0.3,0.2c-0.1,0.1-0.1,0.2-0.2,0.3c0,0.1-0.1,0.2-0.1,0.4
		c0,0.1,0,0.3,0.1,0.3c0.1,0.1,0.2,0.2,0.3,0.2c0.1,0.1,0.3,0.1,0.4,0.2c0.2,0.1,0.3,0.1,0.5,0.2s0.3,0.1,0.5,0.2
		c0.2,0.1,0.3,0.2,0.4,0.3s0.2,0.3,0.3,0.5c0.1,0.2,0.1,0.4,0.1,0.7c0,0.4-0.1,0.7-0.2,1.1c-0.1,0.3-0.3,0.6-0.6,0.9
		c-0.2,0.2-0.5,0.4-0.9,0.6c-0.3,0.1-0.7,0.2-1.2,0.2c-0.2,0-0.4,0-0.7-0.1s-0.4-0.1-0.6-0.2s-0.4-0.2-0.6-0.3s-0.3-0.3-0.4-0.4
		l0.6-0.8c0-0.1,0.1-0.1,0.2-0.1s0.1-0.1,0.2-0.1s0.2,0,0.3,0.1c0.1,0.1,0.2,0.1,0.3,0.2c0.1,0.1,0.2,0.2,0.4,0.2
		c0.1,0.1,0.3,0.1,0.5,0.1c0.3,0,0.6-0.1,0.7-0.3s0.3-0.4,0.3-0.8c0-0.2,0-0.3-0.1-0.4c-0.1-0.1-0.2-0.2-0.3-0.3
		c-0.1-0.1-0.3-0.1-0.4-0.2c-0.2-0.1-0.3-0.1-0.5-0.2c-0.2-0.1-0.3-0.1-0.5-0.2c-0.2-0.1-0.3-0.2-0.4-0.3s-0.2-0.3-0.3-0.5
		c-0.1-0.2-0.1-0.4-0.1-0.7s0.1-0.7,0.2-1s0.3-0.6,0.5-0.8s0.5-0.4,0.9-0.6c0.3-0.1,0.7-0.2,1.1-0.2c0.2,0,0.4,0,0.6,0.1
		c0.2,0,0.4,0.1,0.6,0.2c0.2,0.1,0.3,0.2,0.5,0.3c0.1,0.1,0.3,0.2,0.4,0.4L107.5,43.7z"/>
	<path class="st0" d="M112.8,47.2l-0.3,2.5h-1.7l0.9-7.5h2.5c0.4,0,0.8,0.1,1.1,0.2c0.3,0.1,0.6,0.3,0.8,0.4
		c0.2,0.2,0.4,0.4,0.5,0.7s0.1,0.5,0.1,0.8c0,0.4-0.1,0.8-0.2,1.1s-0.3,0.7-0.6,0.9s-0.6,0.5-1,0.6s-0.9,0.2-1.4,0.2L112.8,47.2
		L112.8,47.2z M113.3,43.5L113,46h0.8c0.2,0,0.4,0,0.6-0.1s0.3-0.2,0.4-0.3s0.2-0.3,0.2-0.5s0.1-0.4,0.1-0.6c0-0.1,0-0.3-0.1-0.4
		s-0.1-0.2-0.2-0.3s-0.2-0.2-0.3-0.2c-0.1-0.1-0.3-0.1-0.4-0.1C114.1,43.5,113.3,43.5,113.3,43.5z"/>
	<path class="st0" d="M122.9,49.7h-1.3c-0.1,0-0.3,0-0.3-0.1c-0.1-0.1-0.1-0.2-0.2-0.3l-0.2-1.4h-2.6l-0.6,1.4
		c0,0.1-0.1,0.2-0.2,0.3s-0.2,0.1-0.4,0.1h-1.3l3.6-7.5h1.7L122.9,49.7z M118.8,46.9h1.9l-0.4-2.1c0-0.2-0.1-0.4-0.1-0.5
		s-0.1-0.4-0.1-0.5c0,0.1-0.1,0.2-0.1,0.3s-0.1,0.2-0.1,0.3s-0.1,0.2-0.1,0.3s-0.1,0.1-0.1,0.2L118.8,46.9z"/>
	<path class="st0" d="M125.8,46.9l-0.3,2.8h-1.7l0.9-7.5h2.3c0.5,0,0.9,0,1.2,0.1s0.6,0.2,0.8,0.4c0.2,0.2,0.4,0.4,0.5,0.6
		s0.1,0.5,0.1,0.8s0,0.5-0.1,0.8s-0.2,0.5-0.3,0.7s-0.3,0.4-0.5,0.6c-0.2,0.2-0.4,0.3-0.7,0.4c0.1,0.1,0.2,0.1,0.3,0.2
		c0.1,0.1,0.2,0.2,0.2,0.3l1.1,2.7h-1.5c-0.1,0-0.3,0-0.4-0.1s-0.2-0.1-0.2-0.2l-0.8-2.2c0-0.1-0.1-0.2-0.2-0.2s-0.2-0.1-0.3-0.1
		L125.8,46.9L125.8,46.9z M126.2,43.5l-0.3,2.3h0.6c0.2,0,0.4,0,0.6-0.1s0.3-0.2,0.4-0.3s0.2-0.3,0.2-0.4c0-0.2,0.1-0.3,0.1-0.5
		c0-0.1,0-0.3-0.1-0.4c0-0.1-0.1-0.2-0.2-0.3s-0.2-0.1-0.3-0.2c-0.1,0-0.3-0.1-0.5-0.1H126.2z"/>
	<path class="st0" d="M136.9,49.7h-1.3c-0.1,0-0.3,0-0.3-0.1c-0.1-0.1-0.1-0.2-0.2-0.3l-0.2-1.4h-2.6l-0.6,1.4
		c0,0.1-0.1,0.2-0.2,0.3c-0.1,0.1-0.2,0.1-0.4,0.1h-1.3l3.6-7.5h1.7L136.9,49.7z M132.8,46.9h1.9l-0.4-2.1c0-0.2-0.1-0.4-0.1-0.5
		s-0.1-0.4-0.1-0.5c0,0.1-0.1,0.2-0.1,0.3s-0.1,0.2-0.1,0.3s-0.1,0.2-0.1,0.3s-0.1,0.1-0.1,0.2L132.8,46.9z"/>
	<path class="st0" d="M146.6,49.7h-1.3c-0.1,0-0.3,0-0.3-0.1c-0.1-0.1-0.1-0.2-0.2-0.3l-0.2-1.4H142l-0.6,1.4c0,0.1-0.1,0.2-0.2,0.3
		c-0.1,0.1-0.2,0.1-0.4,0.1h-1.3l3.6-7.5h1.7L146.6,49.7z M142.5,46.9h1.9l-0.4-2.1c0-0.2-0.1-0.4-0.1-0.5s-0.1-0.4-0.1-0.5
		c0,0.1-0.1,0.2-0.1,0.3s-0.1,0.2-0.1,0.3s-0.1,0.2-0.1,0.3s-0.1,0.1-0.1,0.2L142.5,46.9z"/>
	<path class="st0" d="M147,42.2h1.4c0.1,0,0.3,0,0.3,0.1c0.1,0.1,0.1,0.2,0.2,0.3l0.8,4.1c0,0.2,0.1,0.4,0.1,0.6
		c0,0.2,0.1,0.4,0.1,0.6c0.1-0.2,0.2-0.4,0.2-0.6c0.1-0.2,0.2-0.4,0.2-0.6l1.8-4.1l0.1-0.1l0.1-0.1c0.1,0,0.1-0.1,0.2-0.1
		c0.1,0,0.1,0,0.2,0h1.4l-3.7,7.5h-1.5L147,42.2z"/>
	<path class="st0" d="M159.7,49.7h-1.3c-0.1,0-0.3,0-0.3-0.1c-0.1-0.1-0.1-0.2-0.2-0.3l-0.2-1.4h-2.6l-0.6,1.4
		c0,0.1-0.1,0.2-0.2,0.3c-0.1,0.1-0.2,0.1-0.4,0.1h-1.3l3.6-7.5h1.7L159.7,49.7z M155.6,46.9h1.9l-0.4-2.1c0-0.2-0.1-0.4-0.1-0.5
		s-0.1-0.4-0.1-0.5c0,0.1-0.1,0.2-0.1,0.3s-0.1,0.2-0.1,0.3s-0.1,0.2-0.1,0.3s-0.1,0.1-0.1,0.2L155.6,46.9z"/>
	<path class="st0" d="M162.5,42.2h0.1c0,0,0.1,0,0.1,0.1l0.1,0.1l2.6,4.6c0-0.1,0-0.2,0-0.3s0-0.2,0-0.3l0.5-4.3h1.5l-0.9,7.5h-0.9
		c-0.1,0-0.2,0-0.3-0.1c-0.1,0-0.2-0.1-0.2-0.2l-2.6-4.6c0,0.1,0,0.2,0,0.3s0,0.2,0,0.3l-0.5,4.4h-1.5l0.9-7.5h0.9
		C162.4,42.2,162.5,42.2,162.5,42.2z"/>
	<path class="st0" d="M174.2,42.2l-0.1,0.5c0,0.1,0,0.1-0.1,0.2s-0.1,0.1-0.1,0.2l-3.8,5.3h3.2l-0.2,1.3h-5.4l0.1-0.5
		c0-0.1,0-0.1,0.1-0.2s0.1-0.1,0.1-0.2l3.8-5.4h-3l0.2-1.3h5.2V42.2z"/>
	<path class="st0" d="M180.8,49.7h-1.3c-0.1,0-0.3,0-0.3-0.1c-0.1-0.1-0.1-0.2-0.2-0.3l-0.2-1.4h-2.6l-0.6,1.4
		c0,0.1-0.1,0.2-0.2,0.3c-0.1,0.1-0.2,0.1-0.4,0.1h-1.3l3.6-7.5h1.7L180.8,49.7z M176.6,46.9h1.9l-0.4-2.1c0-0.2-0.1-0.4-0.1-0.5
		s-0.1-0.4-0.1-0.5c0,0.1-0.1,0.2-0.1,0.3s-0.1,0.2-0.1,0.3s-0.1,0.2-0.1,0.3s-0.1,0.1-0.1,0.2L176.6,46.9z"/>
	<path class="st0" d="M183.6,46.9l-0.3,2.8h-1.7l0.9-7.5h2.3c0.5,0,0.9,0,1.2,0.1s0.6,0.2,0.8,0.4s0.4,0.4,0.5,0.6s0.1,0.5,0.1,0.8
		s0,0.5-0.1,0.8s-0.2,0.5-0.3,0.7s-0.3,0.4-0.5,0.6c-0.2,0.2-0.4,0.3-0.7,0.4c0.1,0.1,0.2,0.1,0.3,0.2c0.1,0.1,0.2,0.2,0.2,0.3
		l1.1,2.7h-1.5c-0.1,0-0.3,0-0.4-0.1c-0.1-0.1-0.2-0.1-0.2-0.2l-0.8-2.2c0-0.1-0.1-0.2-0.2-0.2c-0.1,0-0.2-0.1-0.3-0.1L183.6,46.9
		L183.6,46.9z M184,43.5l-0.3,2.3h0.6c0.2,0,0.4,0,0.6-0.1s0.3-0.2,0.4-0.3s0.2-0.3,0.2-0.4c0-0.2,0.1-0.3,0.1-0.5
		c0-0.1,0-0.3-0.1-0.4c0-0.1-0.1-0.2-0.2-0.3s-0.2-0.1-0.3-0.2c-0.1,0-0.3-0.1-0.5-0.1H184z"/>
</g>
<g>
	<path class="st0" d="M70.3,35.7h-7.1c-0.5,0-0.9-0.3-0.8-0.7l3.9-25c0.1-0.4,0.5-0.7,1-0.7h7.1c0.5,0,0.9,0.3,0.8,0.7l-3.9,25
		C71.2,35.4,70.8,35.7,70.3,35.7z"/>
	<path class="st0" d="M151,35.7h-6.2c-0.8,0-1.4-0.3-1.8-1l-5.6-10.6c-0.1-0.2-0.5-0.8-1.1-0.8s-0.6,0.4-0.7,0.7l-1.7,10.9
		c-0.1,0.4-0.5,0.7-1,0.7h-7c-0.5,0-0.9-0.3-0.9-0.7l3.8-24.4c0.1-0.7,0.2-1.3,1.4-1.3h6c0.9,0,1.3,0.4,1.7,1l5.8,10.8
		c0.1,0.2,0.6,0.8,1,0.8s0.6-0.4,0.7-0.7l1.8-11.3c0.1-0.4,0.5-0.7,1-0.7h7.1c0.5,0,0.9,0.3,0.8,0.7c0,0-2.9,18.3-3.8,24.4
		C152.3,35.4,152,35.7,151,35.7z"/>
	<path class="st0" d="M197.7,9.2c-7.4,0-7.7,0-9.6,0c-1.3,0-2.7,0.8-3,2.3L181.4,35c-0.1,0.4,0.4,0.7,0.9,0.7h7c0.5,0,1-0.3,1-0.7
		c0,0,2.7-17.2,2.8-17.6s0.1-0.8,1.1-0.8c0.7,0,2.3,0,3.7,0c1.3,0,2.3,0.7,2.3,2c0,1.1-0.9,2-2.3,2c-1.2,0-2.7,0.2-3.5,2.1
		s0.4,4.1,0.8,5.1c0.5,1,2.8,5.3,3.8,7.1c0.2,0.4,0.3,0.7,0.8,0.7h7.4c0.5,0,0.8-0.2,0.9-0.5c0-0.1,0-0.3-0.1-0.4
		c0,0-4.2-7.5-4.4-7.9c-0.4-0.7,0.5-1,1.3-1.2c2.9-0.9,4.3-4,4.3-6.9C209.1,12.9,205.1,9.2,197.7,9.2z"/>
	<path class="st0" d="M103.4,10c0,0-5.5,14.6-7.5,19.5c-2,5-4.6,6.9-10.3,6.9c-5.6,0-8.7-3.3-8.7-9.3c0.3-10.4,0.4-12.4,0.5-17
		c0-0.4,0.2-0.7,0.9-0.7h7.2c0.7,0,0.9,0.3,0.9,0.7c-0.1,4.7-0.5,14.2-0.7,16.8c0,0.5,0.1,1.5,1,1.5c0.7,0,1-0.8,1.2-1.2
		c1.8-4.7,6.5-17.1,6.5-17.1c0.2-0.4,0.5-0.7,1-0.7h7.4C103.5,9.3,103.5,9.6,103.4,10z"/>
	<path class="st0" d="M97.3,35c0,0,5.5-14.6,7.5-19.5c2-5,4.6-6.9,10.3-6.9c5.6,0,8.7,3.3,8.7,9.3c-0.3,10.4-0.4,12.4-0.5,17
		c0,0.4-0.2,0.7-0.9,0.7h-7.2c-0.7,0-0.9-0.3-0.9-0.7c0.1-4.7,0.5-14.2,0.7-16.8c0-0.5-0.1-1.5-1-1.5c-0.7,0-1,0.8-1.2,1.2
		c-1.8,4.7-6.5,17.1-6.5,17.1c-0.2,0.4-0.5,0.7-1,0.7h-7.4C97.2,35.7,97.2,35.4,97.3,35z"/>
	<path class="st0" d="M153.8,35c0,0,5.5-14.6,7.5-19.5c2-5,4.6-6.9,10.3-6.9c5.6,0,8.7,3.3,8.7,9.3c-0.3,10.4-0.4,12.4-0.5,17
		c0,0.4-0.2,0.7-0.9,0.7h-7.2c-0.7,0-0.9-0.3-0.9-0.7c0.1-4.7,0.5-14.2,0.7-16.8c0-0.5-0.1-1.5-1-1.5c-0.7,0-1,0.8-1.2,1.2
		c-1.8,4.7-6.5,17.1-6.5,17.1c-0.2,0.4-0.5,0.7-1,0.7h-7.4C153.7,35.7,153.7,35.4,153.8,35z"/>
</g>
<path class="st1" d="M192.1,23.6c0.5-3.3,1-6,1-6.2c0.1-0.4,0.1-0.8,1.1-0.8c0.7,0,2.3,0,3.7,0c1.3,0,2.3,0.7,2.3,2
	c0,1.1-0.9,2-2.3,2c-1.2,0-2.7,0.2-3.5,2.1c-0.1,0.3-0.2,0.6-0.2,0.9c4.3,0.1,8.6,0.3,13.1,0.5c1.3-1.4,1.9-3.4,1.9-5.4
	c-0.1-5.8-4.1-9.5-11.5-9.5c-7.4,0-7.7,0-9.6,0c-1.3,0-2.7,0.8-3,2.3l-1.9,11.8C186.2,23.4,189.1,23.5,192.1,23.6z"/>
<path class="st1" d="M111,22.7c0.7-1.9,1.4-3.6,1.9-4.9c0.2-0.4,0.5-1.2,1.2-1.2c0.9,0,1,1,1,1.5c-0.1,0.9-0.2,2.5-0.3,4.5
	c2.9,0,5.9,0,8.9-0.1c0-1.3,0.1-2.9,0.1-4.7c0-6-3.1-9.3-8.7-9.3c-5.7,0-8.3,1.9-10.3,6.9c-0.7,1.6-1.7,4.4-2.9,7.3
	C104.9,22.8,107.9,22.7,111,22.7z"/>
<path class="st1" d="M103.4,10c0.1-0.4,0.1-0.7-0.6-0.6h-7.4c-0.5,0-0.8,0.3-1,0.7c0,0-2.8,7.5-4.9,13c2.9-0.1,5.9-0.2,9-0.2
	C100.8,17,103.4,10,103.4,10z"/>
<path class="st1" d="M167.4,22.9c0.8-2,1.5-3.8,2-5.1c0.2-0.4,0.5-1.2,1.2-1.2c0.9,0,1,1,1,1.5c-0.1,0.9-0.2,2.7-0.3,4.9
	c2.9,0.1,5.9,0.1,8.9,0.2c0-1.5,0.1-3.2,0.2-5.3c0-6-3.1-9.3-8.7-9.3c-5.7,0-8.3,1.9-10.3,6.9c-0.7,1.6-1.7,4.4-2.8,7.3
	C161.4,22.8,164.4,22.9,167.4,22.9z"/>
<path class="st1" d="M154.1,22.7c1-6.5,2-12.9,2-12.9c0.1-0.4-0.3-0.7-0.8-0.7h-7.1c-0.5,0-0.9,0.3-1,0.7l-1.8,11.3
	c-0.1,0.3-0.3,0.7-0.7,0.7c-0.4,0-0.9-0.6-1-0.8l-5.8-10.8c-0.4-0.6-0.8-1-1.7-1h-6c-1.2,0-1.3,0.6-1.4,1.3l-1.9,12
	C135.4,22.6,144.4,22.6,154.1,22.7z"/>
<path class="st1" d="M73.1,23.7L75.2,10c0.1-0.4-0.3-0.7-0.8-0.7h-7.1c-0.5,0-0.9,0.3-1,0.7l-2.2,14.2C66.9,24,69.9,23.9,73.1,23.7z
	"/>
<path class="st1" d="M85.9,23.2c0.2-4,0.4-9.8,0.5-13.1c0-0.4-0.2-0.7-0.9-0.7h-7.2c-0.7,0-0.9,0.3-0.9,0.7c-0.1,4-0.2,6.1-0.4,13.4
	C79.9,23.5,82.8,23.3,85.9,23.2z"/>
<g>
	<g>
		<path class="st2" d="M34.5,40.6c-12.9,5-26.4,1.2-30-8.4c-2-5.3-0.7-11.3,3.2-16.4c3.1-4.1,7.8-7.7,13.5-9.9
			c12.9-5,26.4-1.2,30,8.4C54.9,23.8,47.4,35.6,34.5,40.6z"/>
	</g>
	<g>
		<g>
			<path class="st0" d="M23.1,44.9c-9.9,0-17.8-4.6-20.6-12c-2.2-5.8-1-12.6,3.5-18.5c3.4-4.5,8.5-8.3,14.4-10.6
				c4-1.5,8.2-2.3,12.2-2.3c9.9,0,17.8,4.6,20.6,12c2,5.3,1.2,11.3-2.3,16.8C47.5,35.7,42,40,35.3,42.6
				C31.3,44.1,27.2,44.9,23.1,44.9z M32.6,5.8c-3.5,0-7.2,0.7-10.7,2c-5.2,2-9.6,5.2-12.6,9.2c-3.5,4.7-4.6,10-2.9,14.4
				c2.2,5.7,8.5,9.2,16.6,9.2c3.5,0,7.2-0.7,10.7-2c5.8-2.2,10.6-6,13.5-10.6c2.8-4.4,3.5-9,1.9-13C47.1,9.3,40.7,5.8,32.6,5.8z"/>
		</g>
	</g>
	<path class="st0" d="M25,40.6c-1.2,0.2-1.8-0.6-0.9-1.4c0,0,14.1-15.2,14.7-15.8c0.6-0.6,2.8-2.8,1.3-5.9c-1.4-2.8-4.4-2.6-5-2.6
		c-0.1,0-19.5,2-24.7,2.5c-0.8,0.1-0.8-0.5-0.5-1l-0.7-0.6L5,18.3c-0.2,0-0.3,0.2-0.4,0.3c-0.2,0.3,0,0.7,0.2,1.2l-1.9,6v0.1
		c0.1,0.1,0,0.4-0.1,0.6c-0.1,0.3-0.2,0.6,0,0.8c0,0.1,0.1,0.1,0.3,0.1c0.5,0.5,0.8,2.2,1.7,2.1c0.1,0,0.9-0.2,0.8-1.3
		c-0.2-1.1,0.8-1.6,1.3-1.6c0.6-0.1,14.4-1.4,15.6-1.5c1.3-0.1,1.3,1.1,0.9,1.5s-9.1,9.9-9.7,10.5c-0.6,0.6-1.6,1-2.4,0.6
		s-1.8,1-1.8,1l16.2,4L25,40.6z"/>
</g>
<path class="st3" d="M62.4,35c-0.1,0.4,0.3,0.7,0.8,0.7h7.1c0.5,0,0.9-0.3,1-0.7l1.8-11.3c-3.2,0.1-6.2,0.3-9,0.5L62.4,35z"/>
<path class="st3" d="M127,22.6L125,34.9c0,0.4,0.4,0.7,0.9,0.7h7c0.5,0,0.9-0.3,1-0.7l1.7-10.9c0.1-0.3,0.1-0.7,0.7-0.7
	c0.6,0,1,0.6,1.1,0.8l5.6,10.6c0.4,0.7,1,1,1.8,1h6.2c1,0,1.3-0.3,1.3-1.5c0.4-2.5,1.1-7,1.8-11.5C144.4,22.6,135.4,22.6,127,22.6z"
	/>
<path class="st3" d="M76.9,27.1c0,6,3.1,9.3,8.7,9.3c5.7,0,8.3-1.9,10.3-6.9c0.6-1.5,1.6-4,2.6-6.6c-3.1,0.1-6.1,0.1-9,0.2
	c-0.6,1.6-1.2,3-1.6,4.1c-0.2,0.4-0.5,1.2-1.2,1.2c-0.9,0-1-1-1-1.5c0.1-0.7,0.1-2.1,0.2-3.7c-3.1,0.1-6.1,0.2-8.9,0.3
	C77,24.6,77,25.8,76.9,27.1z"/>
<path class="st3" d="M97.3,35c-0.1,0.4-0.1,0.7,0.6,0.6h7.4c0.5,0,0.8-0.3,1-0.7c0,0,2.6-6.8,4.6-12.2c-3.1,0-6.1,0.1-9,0.1
	C99.8,28.6,97.3,35,97.3,35z"/>
<path class="st3" d="M114.3,34.9c0,0.4,0.2,0.7,0.9,0.7h7.2c0.7,0,0.9-0.3,0.9-0.7c0.1-3.8,0.2-5.9,0.4-12.3c-3.1,0-6,0-8.9,0.1
	C114.6,26.6,114.4,31.8,114.3,34.9z"/>
<path class="st3" d="M170.8,34.9c0,0.4,0.2,0.7,0.9,0.7h7.2c0.7,0,0.9-0.3,0.9-0.7c0.1-3.7,0.2-5.7,0.3-11.7c-3-0.1-6-0.1-8.9-0.2
	C171.1,26.9,170.9,31.9,170.8,34.9z"/>
<path class="st3" d="M153.8,35c-0.1,0.4-0.1,0.7,0.6,0.6h7.4c0.5,0,0.8-0.3,1-0.7c0,0,2.5-6.6,4.5-12c-3-0.1-6-0.1-8.9-0.2
	C156.3,28.6,153.8,35,153.8,35z"/>
<path class="st3" d="M195.2,27.8c0.5,1,2.8,5.3,3.8,7.1c0.2,0.4,0.3,0.7,0.8,0.7h7.4c0.5,0,0.8-0.2,0.9-0.5c0-0.1,0-0.3-0.1-0.4
	c0,0-4.2-7.5-4.4-7.9c-0.4-0.7,0.5-1,1.3-1.2c1-0.3,1.7-0.8,2.4-1.5c-4.5-0.2-8.8-0.3-13.1-0.5C194,25.3,194.9,27,195.2,27.8z"/>
<path class="st3" d="M181.4,35c-0.1,0.4,0.4,0.7,0.9,0.7h7c0.5,0,1-0.3,1-0.7c0,0,1-6.4,1.8-11.4c-3-0.1-6-0.2-8.9-0.3L181.4,35z"/>
</svg>
