<svg xmlns="http://www.w3.org/2000/svg" width="363.271" height="64" viewBox="0 0 363.271 64"><defs><style>.a{fill:#000f28;}.b{fill:#0f4496;}</style></defs><g transform="translate(-153.576 -152.822)"><g transform="translate(283.967 152.822)"><g transform="translate(0 0)"><g transform="translate(0 20.427)"><path class="a" d="M524.413,240.584v-.406h7.707v.406c0,5.91,1.8,8.576,6.084,8.576,3.766,0,5.562-1.97,5.562-6.084,0-3.65-1.97-5.389-5.389-6.953l-4.172-1.912c-5.852-2.665-9.271-5.388-9.271-12.4,0-7.3,4.983-10.893,12.342-10.893,7.938,0,13.211,3.418,13.211,12.342v.348H542.9v-.348c0-4.983-2.028-7.069-5.621-7.069-3.187,0-4.867,1.97-4.867,5.331,0,3.129,1.159,4.578,3.708,5.678l4.52,2.086c6.026,2.665,10.778,5.215,10.778,12.806,0,8.112-4.867,12.4-13.153,12.4C528.817,254.49,524.413,249.507,524.413,240.584Z" transform="translate(-524.413 -210.917)"/><g transform="translate(30.132 0.811)"><path class="a" d="M610.109,213.223h7.474v7.011h-7.474Zm0,10.836h7.474v31.174h-7.474Z" transform="translate(-610.109 -213.223)"/></g><g transform="translate(40.851 10.893)"><path class="a" d="M640.594,263.858v-.174h6.838v.232c0,3.592,1.8,5.737,4.925,5.737,2.492,0,4.462-1.159,4.462-3.708,0-2.434-1.1-3.534-4.056-4.635l-4.636-1.8c-4.4-1.68-7.127-4.172-7.127-8.981,0-6.258,4.694-8.634,10.894-8.634,5.563,0,10.893,2.666,10.893,9.735v.174h-6.721v-.174c0-3.708-2.26-4.809-4.52-4.809-2.144,0-3.882,1.043-3.882,3.245s1.1,2.955,3.129,3.766l4.462,1.8c5.041,1.97,8.344,3.882,8.344,9.619,0,6.721-5.041,9.329-11.241,9.329C644.824,274.577,640.594,270.521,640.594,263.858Z" transform="translate(-640.594 -241.897)"/></g><g transform="translate(63.97 3.418)"><path class="a" d="M710.172,251.987V233.618h-3.824v-4.751h3.824v-8.228h7.475v8.228h5.389v4.751h-5.389v17.557c0,3.477.7,4.114,3.3,4.114h2.086v4.751h-5.389C711.737,260.041,710.172,257.954,710.172,251.987Z" transform="translate(-706.348 -220.639)"/></g><g transform="translate(80.253 3.418)"><path class="a" d="M756.48,251.987V233.618h-3.824v-4.751h3.824v-8.228h7.475v8.228h5.389v4.751h-5.389v17.557c0,3.477.7,4.114,3.3,4.114h2.086v4.751h-5.389C758.045,260.041,756.48,257.954,756.48,251.987Z" transform="translate(-752.656 -220.639)"/></g><g transform="translate(98.1 10.893)"><path class="a" d="M803.413,260.671v-4.925c0-9.1,3.824-13.849,12.168-13.849,8.75,0,11.878,4.867,11.878,15.181v1.854H810.888v.637c0,6.374.638,10.082,4.635,10.082,2.724,0,4.462-1.391,4.462-5.853v-.232H827v.232c0,8.112-5.331,10.778-11.588,10.778C807.064,274.577,803.413,269.652,803.413,260.671Zm7.475-5.91h9.5V254.3c0-5.157-.927-7.59-4.693-7.59-3.824,0-4.809,2.549-4.809,7.59Z" transform="translate(-803.413 -241.897)"/></g><g transform="translate(125.739 10.893)"><path class="a" d="M882.02,242.65h7.474v4.23a7.549,7.549,0,0,1,7.3-4.983c4.23,0,5.969,1.912,6.953,5.447a8.065,8.065,0,0,1,8.112-5.447c5.91,0,7.706,3.651,7.706,11.3v20.628h-7.475V255.166c0-4.577-.348-8-3.071-8-3.535,0-4.462,3.361-4.462,8.286v18.368h-7.475V254.007c0-4-.29-6.837-3.129-6.837-3.65,0-4.462,4.114-4.462,9.734v16.92H882.02Z" transform="translate(-882.02 -241.897)"/></g><g transform="translate(166.59 10.893)"><path class="a" d="M998.2,260.671v-4.925c0-9.1,3.824-13.849,12.168-13.849,8.75,0,11.879,4.867,11.879,15.181v1.854h-16.572v.637c0,6.374.637,10.082,4.636,10.082,2.723,0,4.461-1.391,4.461-5.853v-.232h7.011v.232c0,8.112-5.331,10.778-11.588,10.778C1001.852,274.577,998.2,269.652,998.2,260.671Zm7.475-5.91h9.5V254.3c0-5.157-.927-7.59-4.694-7.59-3.824,0-4.809,2.549-4.809,7.59Z" transform="translate(-998.202 -241.897)"/></g><g transform="translate(191.332 11.646)"><path class="a" d="M1077.609,259.395l-8.4-15.355h7.707l4.635,8.46,4.809-8.46h7.127l-8.46,14.775,9.039,16.4h-7.823l-5.157-9.445-5.389,9.445h-7.127Z" transform="translate(-1068.57 -244.04)"/></g><g transform="translate(219.029 34.65)"><path class="a" d="M1147.342,309.463h8.17v8.17h-8.17Z" transform="translate(-1147.342 -309.463)"/></g></g><g transform="translate(0.675)"><path class="b" d="M539.13,168.8l-.567-2.049h-.044a5.618,5.618,0,0,1-4.861,2.376,6.8,6.8,0,0,1-5.3-2.245,8.352,8.352,0,0,1-2.027-5.821,8.7,8.7,0,0,1,1.973-5.875,6.887,6.887,0,0,1,5.526-2.3,6.6,6.6,0,0,1,4.306,1.341,5.788,5.788,0,0,1,2.038,3.673h-2.027a3.988,3.988,0,0,0-1.439-2.452,4.641,4.641,0,0,0-2.921-.861,4.821,4.821,0,0,0-4.077,1.788,7.485,7.485,0,0,0-1.373,4.687,6.837,6.837,0,0,0,1.5,4.611,4.874,4.874,0,0,0,3.88,1.755,4.451,4.451,0,0,0,3.5-1.352,4.97,4.97,0,0,0,1.21-3.444v-.371h-4.687v-1.7h6.649v8.24Z" transform="translate(-526.333 -152.862)"/><path class="b" d="M576.49,169.4V153.814h7.281a4.708,4.708,0,0,1,3.324,1.177,4.015,4.015,0,0,1,1.275,3.1,3.666,3.666,0,0,1-2.7,3.859v.065a2.907,2.907,0,0,1,1.646,1.3,6.5,6.5,0,0,1,.6,2.67q.218,2.987.719,3.335v.087h-2.115a1.34,1.34,0,0,1-.338-.828q-.1-.632-.229-2.66a3.563,3.563,0,0,0-.839-2.4,3.275,3.275,0,0,0-2.322-.7h-4.338V169.4Zm1.962-13.887v5.712h4.622a3.521,3.521,0,0,0,2.442-.752,2.7,2.7,0,0,0,.828-2.1,2.835,2.835,0,0,0-.741-2.158,3.465,3.465,0,0,0-2.42-.7Z" transform="translate(-558.854 -153.465)"/><path class="b" d="M625.366,169.641a6.81,6.81,0,0,1-4.349-1.286,4.779,4.779,0,0,1-1.624-3.989V153.814h1.962v10.355q0,3.793,4.077,3.793,3.946,0,3.946-3.793V153.814h1.962v10.551a4.753,4.753,0,0,1-1.646,3.978A6.788,6.788,0,0,1,625.366,169.641Z" transform="translate(-586.672 -153.465)"/><path class="b" d="M663.413,169.4V153.814h6.5a4.569,4.569,0,0,1,3.706,1.5,4.942,4.942,0,0,1-.218,6.344,5.293,5.293,0,0,1-3.771,1.2h-4.251v6.54Zm1.962-13.887v5.755h4.1a3.445,3.445,0,0,0,2.431-.763,2.779,2.779,0,0,0,.818-2.136,2.7,2.7,0,0,0-.818-2.126,3.371,3.371,0,0,0-2.322-.73Z" transform="translate(-615.214 -153.465)"/><path class="b" d="M715.4,166.8a7.868,7.868,0,0,1-11.1,0,9.239,9.239,0,0,1,0-11.685,7.868,7.868,0,0,1,11.1,0,9.239,9.239,0,0,1,0,11.685Zm-9.69-1.221a5.692,5.692,0,0,0,8.284,0,7.962,7.962,0,0,0,0-9.254,5.669,5.669,0,0,0-8.284,0,7.963,7.963,0,0,0,0,9.254Z" transform="translate(-640.379 -152.822)"/></g></g><g transform="translate(222.24 32.108)"><path class="a" d="M1161.794,244.138a5.336,5.336,0,0,1,5.318,5.137,5.322,5.322,0,1,1-10.637.114A5.344,5.344,0,0,1,1161.794,244.138Zm.067.792a4.583,4.583,0,0,0-.113,9.166,4.657,4.657,0,0,0,4.595-4.8A4.531,4.531,0,0,0,1161.861,244.93Zm.113,1.585a1.714,1.714,0,0,1,1.947,1.674,1.44,1.44,0,0,1-1.041,1.561l1.041,2.377h-.951l-.906-2.309h-1.358v2.309h-.837v-5.613Zm-1.29,2.557h1.223c.294,0,1.2.068,1.2-.927,0-.612-.588-.838-1.108-.838h-1.313Z" transform="translate(-1156.474 -244.138)"/></g></g><g transform="translate(153.576 153.188)"><g transform="translate(0)"><path class="a" d="M357.33,213.461a7.039,7.039,0,0,0-6.381,4.066l-16.706,35.814a3.517,3.517,0,0,1-3.186,2.03h13.279a7.04,7.04,0,0,0,6.381-4.066l16.706-35.814a3.517,3.517,0,0,1,3.185-2.03Z" transform="translate(-268.653 -192.506)"/><path class="a" d="M298.17,213.461a7.039,7.039,0,0,0-6.381,4.066l-16.706,35.814a3.517,3.517,0,0,1-3.185,2.03h13.279a7.039,7.039,0,0,0,6.381-4.066l16.706-35.814a3.517,3.517,0,0,1,3.186-2.03Z" transform="translate(-230.294 -192.506)"/><path class="a" d="M239.009,213.461a7.039,7.039,0,0,0-6.381,4.066l-16.706,35.814a3.517,3.517,0,0,1-3.186,2.03h13.279A7.039,7.039,0,0,0,232.4,251.3L249.1,215.491a3.517,3.517,0,0,1,3.186-2.03Z" transform="translate(-191.935 -192.506)"/><path class="b" d="M199.717,155.893a3.517,3.517,0,0,1,3.186-2.03H189.624a7.039,7.039,0,0,0-6.381,4.066L156.762,214.7a3.517,3.517,0,0,1-3.186,2.03h13.279a7.04,7.04,0,0,0,6.381-4.066Z" transform="translate(-153.576 -153.863)"/><path class="a" d="M430.238,280.325l-11.777-25.248-7.762,16.64,3.065,6.571a7.039,7.039,0,0,0,6.381,4.066h13.279A3.517,3.517,0,0,1,430.238,280.325Z" transform="translate(-320.292 -219.489)"/></g></g></g></svg>